<svg width="20" height="20" viewBox="0 0 20 20" fill="none" xmlns="http://www.w3.org/2000/svg">
<path d="M9.99999 16.6667C13.6667 16.6667 16.6667 13.6667 16.6667 10C16.6667 6.33335 13.6667 3.33335 9.99999 3.33335C6.33332 3.33335 3.33332 6.33335 3.33332 10C3.33332 13.6667 6.33332 16.6667 9.99999 16.6667ZM9.99999 1.66669C14.5833 1.66669 18.3333 5.41669 18.3333 10C18.3333 14.5834 14.5833 18.3334 9.99999 18.3334C5.41666 18.3334 1.66666 14.5834 1.66666 10C1.66666 5.41669 5.41666 1.66669 9.99999 1.66669ZM10.4167 10.6667L6.41666 13L5.83332 11.8334L9.16666 9.91669V5.83335H10.4167V10.6667Z" fill="#F79F1A"/>
</svg>
