<svg width="20" height="20" viewBox="0 0 20 20" fill="none" xmlns="http://www.w3.org/2000/svg">
<path d="M14.7167 9.33333C14.525 9.08333 14.2917 8.86667 14.075 8.65C13.5167 8.15 12.8833 7.79167 12.35 7.26667C11.1083 6.05 10.8333 4.04167 11.625 2.5C10.8333 2.69167 10.1417 3.125 9.55001 3.6C7.39168 5.33333 6.54168 8.39167 7.55834 11.0167C7.59168 11.1 7.62501 11.1833 7.62501 11.2917C7.62501 11.475 7.50001 11.6417 7.33334 11.7083C7.14168 11.7917 6.94168 11.7417 6.78334 11.6083C6.73605 11.5687 6.69649 11.5207 6.66668 11.4667C5.72501 10.275 5.57501 8.56667 6.20834 7.2C4.81668 8.33333 4.05834 10.25 4.16668 12.0583C4.21668 12.475 4.26668 12.8917 4.40834 13.3083C4.52501 13.8083 4.75001 14.3083 5.00001 14.75C5.90001 16.1917 7.45834 17.225 9.13334 17.4333C10.9167 17.6583 12.825 17.3333 14.1917 16.1C15.7167 14.7167 16.25 12.5 15.4667 10.6L15.3583 10.3833C15.1833 10 14.7167 9.33333 14.7167 9.33333ZM12.0833 14.5833C11.85 14.7833 11.4667 15 11.1667 15.0833C10.2333 15.4167 9.30001 14.95 8.75001 14.4C9.74168 14.1667 10.3333 13.4333 10.5083 12.6917C10.65 12.025 10.3833 11.475 10.275 10.8333C10.175 10.2167 10.1917 9.69167 10.4167 9.11667C10.575 9.43333 10.7417 9.75 10.9417 10C11.5833 10.8333 12.5917 11.2 12.8083 12.3333C12.8417 12.45 12.8583 12.5667 12.8583 12.6917C12.8833 13.375 12.5833 14.125 12.0833 14.5833Z" fill="#F79F1A"/>
</svg>
